<?xml version="1.0" standalone="no"?>
<!DOCTYPE svg PUBLIC "-//W3C//DTD SVG 20010904//EN"
 "http://www.w3.org/TR/2001/REC-SVG-20010904/DTD/svg10.dtd">
<svg version="1.0" xmlns="http://www.w3.org/2000/svg"
 width="260.000000pt" height="260.000000pt" viewBox="0 0 260.000000 260.000000"
 preserveAspectRatio="xMidYMid meet">
<metadata>
Created by potrace 1.14, written by Peter Selinger 2001-2017
</metadata>
<g transform="translate(0.000000,260.000000) scale(0.100000,-0.100000)"
fill="#000000" stroke="none">
<path d="M200 2251 c0 -62 24 -200 48 -278 l19 -60 -46 -23 c-51 -25 -160 -99
-180 -124 -26 -31 -1 -30 32 1 59 56 189 135 201 122 2 -2 21 -38 41 -79 110
-219 290 -396 512 -502 92 -44 263 -97 317 -98 11 -1 -7 -12 -41 -25 -217 -83
-359 -267 -388 -502 -5 -36 -3 -53 4 -53 6 0 11 10 11 23 0 59 6 64 88 70 83
6 169 33 227 73 21 14 38 24 40 22 8 -10 12 -108 4 -113 -5 -4 -9 -12 -9 -18
1 -7 24 13 51 43 56 61 131 204 153 290 8 30 16 48 19 40 46 -139 66 -186 103
-245 52 -83 101 -141 110 -132 4 4 2 12 -4 19 -6 8 -8 33 -4 66 l7 52 39 -26
c57 -39 141 -65 228 -71 l76 -6 7 -43 c9 -60 26 -56 19 4 -20 159 -67 256
-179 367 -77 76 -126 107 -245 153 -22 8 -17 10 42 21 331 58 646 299 790 607
16 35 35 64 42 64 19 0 125 -67 179 -112 46 -38 75 -46 46 -12 -20 25 -129
100 -182 125 -34 17 -46 27 -41 39 36 91 80 370 57 370 -6 0 -13 -37 -17 -82
-6 -79 -33 -213 -55 -269 l-10 -27 -68 20 c-92 28 -290 30 -383 5 -260 -69
-484 -290 -542 -534 -7 -29 -16 -53 -19 -53 -4 0 -10 17 -14 38 -12 63 -64
178 -115 250 -169 241 -467 363 -752 308 -40 -8 -86 -19 -101 -25 -26 -10 -29
-9 -42 23 -22 51 -55 228 -55 290 0 31 -4 56 -10 56 -5 0 -10 -22 -10 -49z
m445 -317 c56 -2 55 -2 55 -19 0 -8 3 -15 8 -15 4 0 13 -13 20 -29 12 -28 10
-33 -32 -94 -24 -36 -46 -64 -48 -62 -2 3 -4 -6 -4 -18 0 -55 -25 -135 -47
-146 -20 -10 -21 -11 -1 -6 14 4 21 0 21 -9 0 -15 -14 -12 -72 18 -37 19 -89
71 -82 83 3 4 -1 17 -9 28 -8 10 -14 14 -14 9 0 -6 3 -14 8 -20 4 -5 -1 0 -10
11 -44 52 -59 76 -53 85 3 5 2 10 -4 10 -14 0 -70 107 -66 128 1 9 10 16 19
16 8 -1 13 2 10 7 -3 5 5 9 18 10 13 0 32 3 43 5 11 3 47 7 79 10 33 2 61 6
64 9 3 2 17 2 31 -2 14 -3 44 -7 66 -9z m1475 1 c84 -6 108 -11 124 -24 8 -7
20 -10 26 -6 5 3 10 1 10 -5 0 -6 6 -8 13 -4 6 4 5 -1 -4 -12 -17 -20 -35 -63
-31 -77 1 -4 -5 -10 -13 -13 -8 -4 -15 -13 -15 -21 0 -8 -4 -11 -10 -8 -5 3
-7 0 -5 -8 3 -7 -6 -26 -20 -41 -14 -15 -25 -33 -25 -40 0 -8 -7 -16 -15 -20
-8 -3 -15 -12 -15 -19 0 -21 -81 -89 -97 -83 -8 3 -11 1 -8 -4 3 -6 -3 -10
-14 -10 -11 0 -23 -4 -26 -10 -3 -5 -12 -10 -18 -9 -8 0 -7 3 2 6 8 3 10 8 3
12 -6 3 -12 36 -14 73 -2 36 -6 64 -10 61 -5 -2 -8 3 -8 11 0 28 -1 31 -17 48
-8 9 -12 22 -7 30 4 7 4 10 -1 6 -11 -11 -67 71 -61 89 3 8 10 11 16 8 6 -3 7
1 4 9 -3 9 -1 16 6 16 6 0 8 5 4 11 -9 16 15 29 56 30 19 0 44 4 55 9 11 5 29
7 40 4 11 -2 45 -6 75 -9z m-1311 -31 c6 -5 -30 -44 -40 -44 -8 0 -39 52 -39
64 0 5 72 -13 79 -20z m1046 -13 c-8 -17 -19 -31 -24 -31 -10 0 -46 39 -40 44
6 6 73 24 77 20 2 -1 -4 -16 -13 -33z m-858 -96 c35 -25 73 -60 86 -77 23 -28
23 -32 9 -73 l-14 -44 -32 16 c-72 37 -140 87 -203 149 l-67 66 34 28 34 28
46 -23 c25 -13 73 -44 107 -70z m798 11 c-48 -64 -227 -196 -264 -196 -11 0
-21 14 -28 43 -11 40 -11 43 20 75 41 43 113 96 179 132 l52 28 32 -25 33 -25
-24 -32z m-882 -137 c39 -28 93 -60 120 -72 l47 -20 0 -58 c0 -65 2 -64 -96
-74 l-61 -7 -46 74 c-47 74 -96 131 -155 180 -33 27 -33 28 -16 55 10 15 26
38 37 50 l19 22 39 -49 c22 -27 72 -73 112 -101z m966 95 l30 -47 -42 -32
c-46 -36 -119 -124 -162 -198 l-28 -48 -66 6 c-101 10 -96 7 -93 73 l4 58 72
37 c78 40 152 98 206 163 19 23 38 40 42 38 3 -2 20 -25 37 -50z m-640 -288
c25 -64 38 -115 47 -190 6 -56 6 -58 -13 -47 -34 18 -120 118 -144 168 -13 26
-25 73 -27 104 l-4 56 60 -20 c58 -19 61 -21 81 -71z m259 36 c-8 -79 -48
-154 -122 -227 -55 -54 -61 -57 -64 -37 -5 31 24 172 47 230 17 43 23 49 77
69 33 12 61 22 63 22 2 1 1 -25 -1 -57z m-874 -38 c7 -19 2 -18 -19 6 -16 17
-16 20 -3 15 9 -4 19 -13 22 -21z m1371 6 c-10 -11 -21 -17 -24 -14 -3 3 3 12
13 20 28 20 32 17 11 -6z m-1156 -50 c56 0 68 -10 94 -78 15 -36 25 -68 22
-70 -14 -14 -218 86 -275 135 -17 13 -30 33 -30 42 0 17 6 16 81 -6 45 -12 93
-23 108 -23z m1106 21 c-3 -12 -26 -34 -50 -51 -53 -36 -191 -106 -229 -116
-26 -6 -28 -5 -21 17 9 29 47 119 50 119 21 0 180 33 210 43 46 17 49 16 40
-12z m-848 -38 c13 -36 68 -109 112 -151 l46 -43 -45 6 c-89 12 -205 37 -214
45 -5 5 -21 41 -36 79 l-28 70 57 4 c31 2 66 4 79 5 14 1 25 -5 29 -15z m562
1 c5 -4 -49 -143 -58 -148 -8 -5 -147 -32 -210 -41 l-44 -6 60 65 c33 35 69
82 79 105 l19 41 75 -6 c41 -4 77 -8 79 -10z m-379 -312 c-8 -56 -18 -86 -31
-98 -19 -17 -120 -56 -128 -49 -2 2 10 32 26 67 27 57 128 176 140 164 2 -2
-1 -40 -7 -84z m163 -61 c14 -25 28 -56 31 -68 7 -22 7 -22 -36 -9 -102 32
-109 41 -123 171 l-7 60 55 -54 c30 -29 66 -74 80 -100z m-421 -118 l68 -6 -6
-36 c-8 -41 -18 -51 -94 -90 -60 -31 -138 -51 -202 -51 l-40 0 7 37 c6 35 44
120 74 169 13 20 14 20 69 1 31 -10 86 -21 124 -24z m205 0 c-31 -68 -97 -173
-108 -173 -5 0 -9 39 -9 88 l0 87 63 22 c34 11 65 21 69 22 4 0 -2 -20 -15
-46z m193 23 l65 -24 3 -86 c2 -49 -1 -86 -7 -86 -13 0 -78 100 -106 165 -14
30 -24 55 -22 55 1 0 31 -11 67 -24z m390 -78 c16 -35 32 -78 36 -95 l7 -33
-44 0 c-139 1 -299 80 -299 149 0 28 1 28 70 35 39 3 94 14 123 24 61 22 59
24 107 -80z"/>
<path d="M721 1844 c0 -11 3 -14 6 -6 3 7 2 16 -1 19 -3 4 -6 -2 -5 -13z"/>
<path d="M655 1789 c-4 -6 -5 -12 -2 -15 2 -3 7 2 10 11 7 17 1 20 -8 4z"/>
<path d="M2109 1613 c-13 -16 -12 -17 4 -4 16 13 21 21 13 21 -2 0 -10 -8 -17
-17z"/>
</g>
</svg>
