<svg xmlns="http://www.w3.org/2000/svg" width="15.657" height="30" viewBox="0 0 15.657 30">
  <path id="Path_96" data-name="Path 96" d="M82.58.1,78.187,0a6.438,6.438,0,0,0-6.581,6.436V10.6H67.524a.3.3,0,0,0-.3.3v5.235a.3.3,0,0,0,.3.3h4.082V29.7a.3.3,0,0,0,.3.3h5.406a.3.3,0,0,0,.3-.3V16.448h4.117a.3.3,0,0,0,.3-.264l.681-5.237a.307.307,0,0,0-.073-.239.3.3,0,0,0-.228-.1h-4.8V7.957a3.022,3.022,0,0,1,.557-2.02,1.651,1.651,0,0,1,1.293-.5h3.105a.3.3,0,0,0,.3-.3V.4a.3.3,0,0,0-.3-.3" transform="translate(-67.22 0)" fill="#005a7a" fill-rule="evenodd"/>
</svg>
