<?xml version="1.0" encoding="utf-8"?>
<!-- Generator: Adobe Illustrator 27.8.0, SVG Export Plug-In . SVG Version: 6.00 Build 0)  -->
<svg version="1.1" id="Layer_1" xmlns="http://www.w3.org/2000/svg" xmlns:xlink="http://www.w3.org/1999/xlink" x="0px" y="0px"
	 viewBox="0 0 262 75" style="enable-background:new 0 0 262 75;" xml:space="preserve">
<style type="text/css">
	.st0{fill-rule:evenodd;clip-rule:evenodd;}
	.st1{fill-rule:evenodd;clip-rule:evenodd;fill:#ABD69A;}
	.st2{fill-rule:evenodd;clip-rule:evenodd;fill:#00AEEF;}
	.st3{fill-rule:evenodd;clip-rule:evenodd;fill:#94D9F8;}
	.st4{fill-rule:evenodd;clip-rule:evenodd;fill:#9F248F;}
	.st5{fill-rule:evenodd;clip-rule:evenodd;fill:#7E53A2;}
	.st6{fill-rule:evenodd;clip-rule:evenodd;fill:#F68B1F;}
	.st7{fill-rule:evenodd;clip-rule:evenodd;fill:#A2D6B7;}
	.st8{fill-rule:evenodd;clip-rule:evenodd;fill:#5BBA47;}
	.st9{fill-rule:evenodd;clip-rule:evenodd;fill:#17479E;}
	.st10{fill-rule:evenodd;clip-rule:evenodd;fill:#00A9A0;}
</style>
<g>
	<g>
		<g>
			<g>
				<path id="path_6d7535c0d8841c384fa14898cab8c2e7" class="st0" d="M112.5,26l0.6-0.6c-3.2-3.2-6.9-5.6-10.8-7.2
					c2-5.4,3.1-11.1,3.1-17h-0.8c0,5.9-1.1,11.5-3.1,16.7c-5.9-2.2-12.3-2.7-18.4-1.4c-0.1,0-0.2,0-0.2,0c-1.9,0.4-3.8,1-5.6,1.7
					c-0.1,0-0.1,0-0.2,0.1c-3.8,1.6-7.4,3.9-10.5,7.1c-0.7,0.7-1.4,1.4-2,2.2c0,0,0,0,0,0c-1.7,2.1-3.2,4.3-4.3,6.6
					c0,0,0,0.1-0.1,0.1c-1.4,2.9-2.4,6-2.8,9.2c-1.1-6.8-4.2-13.1-9.2-18.1C42,19.3,33.8,15.8,25,15.8l0,0c-4.1,0-8,0.7-11.7,2.1
					c-2-5.2-3-10.8-3-16.7H9.5c0,5.9,1.1,11.6,3.1,17c-4,1.6-7.6,4.1-10.8,7.2L2.4,26C5.4,23,9,20.6,12.9,19
					C15,24.3,18,29.3,22,33.6c0,0,0.1,0.1,0.1,0.1c0.5,0.5,1,1,1.5,1.5c1.7,1.7,3.4,3.2,5.3,4.6c0,0,0,0,0,0
					c6.9,5.1,14.9,8.3,23.4,9.2c-6.1,1.3-11.3,4.7-15,9.4c-0.1,0-0.1,0.1-0.1,0.2c0,0,0,0,0,0c-2.4,3.1-4.1,6.8-4.8,10.9
					c0,0,0,0.1,0,0.1c0,0,0,0.1,0,0.1C32,71,31.9,72.5,31.9,74h0.8c0-1.4,0.1-2.7,0.3-4c0.4,0,1.1,0.1,2,0.1c3.1,0,8.4-0.6,13.1-4.6
					c0,1.4,0.2,3,0.6,4.6c-0.3,0.4-0.7,0.8-1.1,1.1l0.6,0.6c5-5,8.2-11.3,9.2-18.1c0.2,1.4,0.5,2.7,0.9,4c0,0.1,0,0.1,0.1,0.2
					c1.5,5.1,4.3,9.9,8.3,13.9l0.6-0.6c-0.4-0.4-0.7-0.7-1.1-1.1c0.4-1.6,0.6-3.2,0.6-4.6c4.6,3.9,10,4.6,13.1,4.6
					c0.9,0,1.6-0.1,2-0.1c0.2,1.3,0.3,2.6,0.3,4H83c0-1.5-0.1-3-0.4-4.5c0,0,0,0,0,0c0,0,0,0,0,0c-0.7-4.1-2.4-7.8-4.8-11
					c0,0,0,0,0,0c0-0.1-0.1-0.1-0.1-0.1c-3.7-4.7-9-8.1-15-9.4c10.9-1.2,20.9-5.9,28.7-13.8c0.5-0.5,1-1,1.5-1.6c0,0,0,0,0,0
					c4-4.3,7.1-9.3,9.2-14.6C105.9,20.6,109.4,22.9,112.5,26z"/>
			</g>
		</g>
		<g>
			<g>
				<g>
					<path id="path_2f2e658b0ed7a9a8c5f057c0c847fa8a" class="st1" d="M57.9,49.6c1,0.7,3,2.2,4.7,4.6c1.3,1.8,2.2,3.7,2.8,5.8
						c-3.4-0.7-5.7-2.1-6.2-2.5C58.4,55,58,52.3,57.9,49.6z"/>
				</g>
			</g>
			<g>
				<g>
					<path id="path_14855c79ec2295b0a84a3471f6cb81e8" class="st1" d="M55.8,57.5c-0.5,0.3-2.8,1.9-6.3,2.5c0.6-2.1,1.5-4,2.8-5.8
						c1.8-2.5,3.8-4,4.7-4.7C57,52.3,56.6,55,55.8,57.5z"/>
				</g>
			</g>
		</g>
		<g>
			<g>
				<g>
					<path id="path_8c277c7c69dac412f9557fdf02abed6d" class="st2" d="M58.8,48.4c1.3-0.9,3.4-2.6,5.1-5c0.9-1.3,1.8-2.8,2.4-4.6
						c2.2,0.5,4.4,0.7,6.4,0.7c0.3,0,0.7,0,1,0c-1.6,3.3-2.4,6.1-2.6,6.9C67.2,47.6,63.1,48.3,58.8,48.4z"/>
				</g>
			</g>
			<g>
				<g>
					<path id="path_4e1f12841838df89649c50ed72f1414a" class="st2" d="M43.8,46.4c-0.2-0.8-1-3.5-2.6-6.8c0.3,0,0.7,0,1,0
						c2.1,0,4.2-0.2,6.4-0.7c0.6,1.8,1.5,3.3,2.4,4.6c1.8,2.4,3.9,4.1,5.1,5C51.8,48.3,47.7,47.6,43.8,46.4z"/>
				</g>
			</g>
		</g>
		<g>
			<g>
				<g>
					<path id="path_bb334739504c5f1d1e70db9a38eeea2c" class="st3" d="M85.5,39.2c-4,3-8.5,5.3-13.4,6.9c0.3-1.2,1.2-3.7,2.6-6.6
						c3.8-0.2,7.2-1.1,9.8-2c0.4-0.2,0.9-0.3,1.3-0.5C85.7,38.1,85.6,38.9,85.5,39.2z"/>
				</g>
			</g>
			<g>
				<g>
					<path id="path_cc15a1737d633c87674b20ad59c08677" class="st3" d="M29.4,39.2c-0.1-0.3-0.2-1.1-0.3-2.1c0.4,0.2,0.8,0.3,1.3,0.5
						c2.6,0.9,6.1,1.8,9.8,2c1.5,2.9,2.3,5.4,2.6,6.6C38,44.5,33.5,42.2,29.4,39.2z"/>
				</g>
			</g>
		</g>
		<g>
			<g>
				<g>
					<path id="path_0c98d6b27fdddc0f0cab077b9f443902" class="st2" d="M86.7,36.7c1.4-0.6,2.7-1.1,3.6-1.6c-1.2,1.2-2.5,2.3-3.9,3.4
						C86.5,38,86.6,37.4,86.7,36.7z"/>
				</g>
			</g>
			<g>
				<g>
					<path id="path_09b550af102408152913bb5755d310de" class="st2" d="M28.5,38.5c-1.3-1-2.6-2.2-3.8-3.3c1,0.5,2.2,1.1,3.6,1.6
						C28.3,37.4,28.4,38,28.5,38.5z"/>
				</g>
			</g>
		</g>
		<g>
			<g>
				<g>
					<path id="path_607938748b473a7da3bc2877d52bdc35" class="st4" d="M85.9,36.2c-2.9,1.1-6.7,2.2-10.8,2.5c2-3.8,5-8.1,9.4-11.1
						c0.6,1.4,1,2.9,1.2,4.5C85.9,33.6,86,35,85.9,36.2z"/>
				</g>
			</g>
			<g>
				<g>
					<path id="path_355c03d03c91515a88e333e74d94a7e2" class="st4" d="M29.2,32.1c0.2-1.6,0.6-3.1,1.2-4.5c4.4,3,7.4,7.3,9.4,11.1
						c-4.1-0.3-7.8-1.4-10.8-2.5C28.9,35,29,33.6,29.2,32.1z"/>
				</g>
			</g>
		</g>
		<g>
			<g>
				<g>
					<path id="path_e6502470cdc8976ace331e33020743e6" class="st5" d="M53.5,33.9c-0.9-0.2-2.6-0.7-4.7-1.6c0.2-1.2,0.6-2.5,1.2-3.7
						C51.4,30.3,52.5,32.1,53.5,33.9z"/>
				</g>
			</g>
			<g>
				<g>
					<path id="path_ba2716de4fa7f1c494edee38cea27ea8" class="st5" d="M64.9,28.6c0.6,1.3,1,2.5,1.2,3.7c-2,0.8-3.7,1.3-4.6,1.6
						C62.4,32.1,63.6,30.3,64.9,28.6z"/>
				</g>
			</g>
		</g>
		<g>
			<g>
				<g>
					<path id="path_0a1b757133e2a843d570e42b1aa7703d" class="st1" d="M54,34.9c2,4.1,3,8.6,3.1,13.2c-1.1-0.7-3.5-2.5-5.5-5.2
						c-1.1-1.5-1.9-3-2.4-4.6c0,0,0,0,0-0.1c0,0,0-0.1,0-0.1c-0.5-1.6-0.6-3.3-0.4-5C51.3,34.3,53.4,34.7,54,34.9z"/>
				</g>
			</g>
			<g>
				<g>
					<path id="path_e7f3ba404016e37a2e33fde299bec2a3" class="st1" d="M61,34.9c0.6-0.1,2.6-0.6,5.2-1.7c0.2,1.7,0,3.4-0.4,5
						c0,0,0,0.1,0,0.1c0,0,0,0,0,0.1c-0.5,1.6-1.3,3.1-2.4,4.6c-1.9,2.6-4.3,4.4-5.5,5.2C58,43.6,59,39,61,34.9z"/>
				</g>
			</g>
		</g>
		<g>
			<g>
				<g>
					<path id="path_585e63f73ff6521a12e532b8002d1efa" class="st6" d="M44.8,31.4c1.1,0.6,2.1,1.1,3.1,1.5c-0.2,1.9-0.1,3.6,0.4,5.2
						c-2.6,0.6-5.1,0.8-7.6,0.7c-2.1-4-5.2-8.7-10-11.9c0.8-1.7,1.9-3.3,3.3-4.7C37.1,26.6,41.4,29.6,44.8,31.4z"/>
				</g>
			</g>
			<g>
				<g>
					<path id="path_d91901eaed11885c5e4c8c7b9525dbc4" class="st6" d="M74.2,38.8c-2.5,0.1-5-0.1-7.6-0.7c0.4-1.6,0.6-3.3,0.4-5.2
						c1-0.4,2-0.9,3.1-1.5c3.4-1.8,7.7-4.8,10.8-9.3c1.4,1.4,2.5,3,3.3,4.7C79.5,30.1,76.3,34.8,74.2,38.8z"/>
				</g>
			</g>
		</g>
		<g>
			<g>
				<g>
					<path id="path_e2d43d78eac40bd5fdddeb33aa55331c" class="st7" d="M32.4,17.5c1.5,0.3,2.9,0.8,4.3,1.3c-0.9,0.7-1.8,1.3-2.5,2
						C33.5,19.8,32.9,18.7,32.4,17.5z"/>
				</g>
			</g>
			<g>
				<g>
					<path id="path_e41e82d40afa521d95cf25eb922008b0" class="st7" d="M80.7,20.9c-0.7-0.7-1.6-1.4-2.5-2c1.4-0.5,2.8-1,4.2-1.3
						C82,18.7,81.4,19.8,80.7,20.9z"/>
				</g>
			</g>
		</g>
		<g>
			<g>
				<g>
					<path id="path_76e03fa14e06f9a3934c36f486d48c08" class="st2" d="M67.2,26c3-3,6.4-5.3,10.1-6.8c1.1,0.7,2.1,1.5,2.9,2.3
						c-3,4.4-7.2,7.3-10.6,9.1c-1,0.5-2,1-2.9,1.4c-0.2-1.3-0.7-2.7-1.4-4.1C66,27.3,66.6,26.6,67.2,26z"/>
				</g>
			</g>
			<g>
				<g>
					<path id="path_290c2537ec648d06674c2991b4eaa7e1" class="st2" d="M49.5,28c-0.7,1.4-1.1,2.8-1.4,4.1c-0.9-0.4-1.9-0.8-2.9-1.4
						c-3.4-1.8-7.6-4.7-10.6-9.1c0.9-0.8,1.9-1.6,3-2.4c3.7,1.6,7.2,3.9,10.1,6.8C48.3,26.6,48.9,27.3,49.5,28z"/>
				</g>
			</g>
		</g>
		<g>
			<g>
				<g>
					<path id="path_f71647518caae54a0974a382055c6633" class="st6" d="M48.9,64.8c0-0.1,0-0.1,0-0.2c0-1.3,0.2-2.5,0.4-3.7
						c0.6-0.1,1.1-0.2,1.6-0.3c2.1-0.5,3.6-1.3,4.5-1.9c-1.3,3.9-3.3,7.6-6.1,10.8C49.1,67.8,48.9,66.3,48.9,64.8z"/>
				</g>
			</g>
			<g>
				<g>
					<path id="path_ef2c91bb55b7976e5f2d00ad6177c87a" class="st6" d="M59.5,58.7c0.9,0.5,2.4,1.3,4.5,1.8c0.5,0.1,1,0.2,1.6,0.3
						c0.3,1.2,0.4,2.4,0.4,3.7c0,0.1,0,0.1,0,0.2c0,1.5-0.1,3.1-0.5,4.7C62.8,66.2,60.8,62.6,59.5,58.7z"/>
				</g>
			</g>
		</g>
		<g>
			<g>
				<g>
					<path id="path_ee709bccbecd7c0a25b76a74d72fe7d8" class="st8" d="M33.2,69.2c0.7-3.7,2.3-7.1,4.5-10c3.2,1.5,6.1,2,8.6,2
						c0.8,0,1.6-0.1,2.3-0.1c-0.2,1.1-0.3,2.2-0.4,3.5C42.3,69.8,35,69.4,33.2,69.2z"/>
				</g>
			</g>
			<g>
				<g>
					<path id="path_aa1668ef4ec68de7d5a5d264ba73addb" class="st8" d="M66.8,64.5c0-1.2-0.2-2.4-0.4-3.5c0.7,0.1,1.5,0.1,2.3,0.1
						c2.5,0,5.4-0.5,8.6-2c2.2,2.9,3.7,6.3,4.5,10C80,69.4,72.6,69.8,66.8,64.5z"/>
				</g>
			</g>
		</g>
		<g>
			<g>
				<g>
					<path id="path_4ae6ebb2aba7a41b553d84083d925033" class="st9" d="M56.1,49.3c-1.1,0.8-2.8,2.3-4.4,4.5c-1.1,1.6-2.3,3.7-3,6.4
						c-2.9,0.4-6.5,0.2-10.6-1.6C42.4,53.2,48.8,49.7,56.1,49.3z"/>
				</g>
			</g>
			<g>
				<g>
					<path id="path_00a8e1cb228ea7fcb417106497a4e8fb" class="st9" d="M76.8,58.5c-4,1.8-7.7,2.1-10.6,1.6c-0.7-2.7-1.8-4.8-3-6.4
						c-1.6-2.2-3.3-3.6-4.4-4.5C66.1,49.7,72.5,53.2,76.8,58.5z"/>
				</g>
			</g>
		</g>
		<g>
			<g>
				<g>
					<path id="path_537b06a10a9f19bbc2f6d17e8deb5af2" class="st10" d="M25,16.6c2.2,0,4.3,0.2,6.4,0.6c0.6,1.5,1.3,2.9,2.1,4.2
						c-1.7,1.7-2.8,3.6-3.7,5.3c0,0,0,0,0,0c0,0-0.1,0.1-0.1,0.1c-0.8,1.8-1.2,3.6-1.5,5.1c-0.2,1.4-0.2,2.7-0.2,3.8
						c-3-1.2-5-2.4-5.5-2.7c-3.8-4.2-6.9-9-9-14.4C17.2,17.4,21.1,16.6,25,16.6z"/>
				</g>
			</g>
			<g>
				<g>
					<path id="path_76b90fae2a4935569e0d07c1e13a07fc" class="st10" d="M92.3,33.1c-0.5,0.3-2.5,1.5-5.5,2.7c0-1.1,0-2.4-0.2-3.8
						c-0.2-1.5-0.6-3.3-1.5-5.1c0-0.1,0-0.1-0.1-0.1c0,0,0,0,0,0c-0.8-1.8-2-3.6-3.7-5.3c0.8-1.3,1.5-2.6,2.1-4.1
						c5.9-1.2,12.1-0.7,17.8,1.4C99.1,24.1,96.1,28.9,92.3,33.1z"/>
				</g>
			</g>
		</g>
	</g>
	<g>
		<g>
			<g>
				<path id="path_cc0ef06d38f5a5df0f2f5c2c09e4f7f8" class="st0" d="M140.9,37.8c-0.4,0.8-1,1.4-1.7,2.1c-0.8,0.6-1.7,1.1-2.9,1.6
					c-1.2,0.4-2.4,0.5-3.6,0.4c-1.2-0.2-2.3-0.7-3.3-1.4s-2-1.8-2.8-3.1c-0.9-1.3-1.6-2.8-2.2-4.6c-0.6-1.6-0.9-3.2-1.1-4.8
					c-0.2-1.5-0.1-2.9,0.2-4.2c0.3-1.3,0.8-2.3,1.5-3.3c0.7-0.9,1.7-1.6,2.9-2c1.1-0.4,2.2-0.5,3.2-0.4c1,0.1,2,0.5,3,1.3l-0.9,1.9
					c-0.7-0.6-1.5-0.9-2.2-1.1c-0.8-0.1-1.5-0.1-2.2,0.2c-0.9,0.3-1.6,0.9-2.1,1.6c-0.5,0.7-0.8,1.6-0.9,2.7c-0.1,1-0.1,2.2,0.1,3.4
					c0.2,1.2,0.5,2.5,1,3.8c0.5,1.4,1,2.6,1.7,3.7c0.6,1.1,1.3,2,2.1,2.6c0.8,0.7,1.6,1.1,2.4,1.4c0.9,0.2,1.8,0.2,2.7-0.1
					c0.7-0.2,1.2-0.5,1.7-0.9c0.5-0.4,0.8-0.7,1.1-1.2l-2.6-7.5l-3.2,1.1l-0.7-1.9l5.3-1.9L140.9,37.8L140.9,37.8z"/>
			</g>
		</g>
		<g>
			<g>
				<path id="path_2c6bd332b874497a5685f94efbe0f111" class="st0" d="M148.4,37.6l-5.1-22.9l2.3-0.5l5.1,22.9L148.4,37.6z"/>
			</g>
		</g>
		<g>
			<g>
				<path id="path_b68cec28baf29914b6f29f092b2cc3f1" class="st0" d="M169.4,27.8c0.2,1.2,0.1,2.2-0.2,3.1c-0.3,0.9-0.7,1.6-1.2,2.1
					c-0.5,0.6-1.1,1-1.8,1.3c-0.7,0.3-1.4,0.5-2,0.6l-5.9,0.8l-3-23.3l5.3-0.7c0.7-0.1,1.3-0.1,2.1,0c0.7,0.1,1.4,0.3,2,0.7
					c0.6,0.4,1.2,0.9,1.7,1.6c0.5,0.7,0.8,1.6,0.9,2.7c0.1,0.8,0.1,1.5,0,2.1c-0.1,0.6-0.3,1.1-0.5,1.6c-0.3,0.5-0.6,0.9-0.9,1.2
					c-0.4,0.3-0.7,0.6-1.1,0.8l0,0.1c0.4,0,0.9,0.2,1.4,0.4s1,0.5,1.5,0.9c0.5,0.4,0.9,1,1.2,1.6C169,26,169.3,26.8,169.4,27.8z
					 M165.1,17.3c-0.1-0.8-0.3-1.4-0.6-1.9c-0.3-0.5-0.7-0.9-1.1-1.1c-0.4-0.3-0.9-0.4-1.4-0.5c-0.5-0.1-1-0.1-1.5,0l-2.9,0.4
					l1.1,8.2l2.9-0.4c0.5-0.1,0.9-0.2,1.4-0.4c0.5-0.2,0.8-0.5,1.2-0.9c0.3-0.4,0.6-0.9,0.8-1.4C165.1,18.7,165.2,18,165.1,17.3z
					 M167.1,27.9c-0.1-0.9-0.3-1.6-0.7-2.2c-0.3-0.6-0.7-1-1.2-1.3c-0.5-0.3-1-0.5-1.5-0.6c-0.5-0.1-1-0.1-1.5-0.1l-3.3,0.4l1.2,9.3
					l3.3-0.4c0.6-0.1,1.1-0.2,1.6-0.5c0.5-0.2,0.9-0.6,1.3-1c0.3-0.4,0.6-0.9,0.7-1.5C167.2,29.4,167.2,28.7,167.1,27.9z"/>
			</g>
		</g>
		<g>
			<g>
				<path id="path_4ed4c76f79f7dc9860be4829f48c0fc9" class="st0" d="M186.5,27.4c0,1-0.1,2-0.4,2.8c-0.3,0.8-0.7,1.5-1.2,2.1
					c-0.5,0.6-1.1,1-1.9,1.4c-0.7,0.3-1.5,0.5-2.3,0.5c-1.2,0-2.3-0.2-3.3-0.6c-1-0.5-1.9-1.1-2.5-1.9l1.4-1.7
					c0.5,0.7,1.2,1.3,2,1.6c0.8,0.4,1.6,0.5,2.4,0.5c1.1,0,1.9-0.4,2.6-1.2c0.7-0.8,1-1.9,1-3.3c0-0.7-0.2-1.2-0.4-1.7
					c-0.2-0.5-0.6-0.9-0.9-1.3c-0.4-0.4-0.8-0.7-1.3-1c-0.5-0.3-1-0.6-1.5-0.8c-0.7-0.3-1.3-0.6-1.9-1c-0.6-0.4-1.1-0.8-1.6-1.3
					c-0.4-0.5-0.8-1.1-1.1-1.8c-0.3-0.7-0.5-1.5-0.5-2.4c0-1.1,0.1-2,0.4-2.8c0.3-0.8,0.7-1.5,1.3-2.1c0.5-0.6,1.2-1,1.9-1.3
					c0.7-0.3,1.4-0.4,2.2-0.5c1.1,0,2,0.1,2.9,0.4s1.6,0.9,2.2,1.6l-1.4,1.7c-0.5-0.6-1-1.1-1.6-1.3c-0.6-0.3-1.3-0.4-2-0.3
					c-0.5,0-0.9,0.1-1.4,0.3c-0.4,0.2-0.8,0.5-1.2,0.8c-0.3,0.4-0.6,0.8-0.8,1.4c-0.2,0.6-0.3,1.2-0.3,2c0,0.7,0.1,1.2,0.4,1.7
					c0.2,0.5,0.5,0.9,0.9,1.3c0.4,0.4,0.8,0.7,1.2,1c0.5,0.3,0.9,0.5,1.4,0.7c0.6,0.3,1.3,0.6,1.9,1c0.6,0.4,1.2,0.8,1.7,1.3
					c0.5,0.5,0.9,1.1,1.2,1.8C186.3,25.6,186.5,26.4,186.5,27.4z"/>
			</g>
		</g>
		<g>
			<g>
				<path id="path_18764e44fb0cc8f92c68c4b37127685b" class="st0" d="M208.4,22.4c-0.1,1.8-0.4,3.5-0.8,5c-0.4,1.5-1,2.8-1.7,3.8
					c-0.7,1-1.6,1.8-2.6,2.4c-1,0.5-2.1,0.8-3.3,0.7c-1.2-0.1-2.3-0.4-3.2-1.1c-0.9-0.6-1.7-1.5-2.3-2.7c-0.6-1.1-1.1-2.4-1.3-4
					c-0.3-1.5-0.4-3.2-0.3-5c0.1-1.8,0.4-3.5,0.8-5c0.4-1.5,1-2.8,1.7-3.8c0.7-1,1.6-1.8,2.6-2.4c1-0.5,2.1-0.8,3.4-0.7
					c1.2,0.1,2.3,0.4,3.2,1.1c0.9,0.6,1.7,1.5,2.3,2.6c0.6,1.1,1,2.4,1.3,4C208.4,18.9,208.5,20.6,208.4,22.4z M206,22.3
					c0.1-1.4,0-2.7-0.1-4c-0.2-1.2-0.4-2.3-0.8-3.3c-0.4-0.9-0.9-1.7-1.6-2.2c-0.6-0.6-1.4-0.9-2.2-0.9c-0.9-0.1-1.7,0.2-2.4,0.7
					c-0.7,0.5-1.3,1.2-1.8,2.1c-0.5,0.9-0.9,1.9-1.2,3.2c-0.3,1.2-0.5,2.5-0.6,4c-0.1,1.4,0,2.7,0.1,4c0.2,1.2,0.4,2.3,0.8,3.3
					c0.4,1,0.9,1.7,1.5,2.3c0.6,0.6,1.4,0.9,2.3,0.9c0.9,0,1.7-0.2,2.4-0.7c0.7-0.5,1.3-1.2,1.8-2.1c0.5-0.9,0.9-2,1.2-3.2
					C205.7,25,205.9,23.7,206,22.3z"/>
			</g>
		</g>
		<g>
			<g>
				<path id="path_3f21d331da4ede740f3f8c0ea20c7efa" class="st0" d="M224.7,36.7L220,16.1l-0.1,0l-3.3,19.2l-2.1-0.4l4-23.1
					l2.8,0.5l4.7,20.6l0.1,0l3.3-19.2l2.1,0.4l-4,23.1L224.7,36.7z"/>
			</g>
		</g>
		<g>
			<g>
				<path id="path_1104188975c3acbea1a16e6e84544df8" class="st0" d="M239.1,24.5l2.3-7.9l1.8,0.5L241,25L239.1,24.5z"/>
			</g>
		</g>
		<g>
			<g>
				<path id="path_89b590ee4133c4e11c6aed27b6fec523" class="st0" d="M252.9,39c-0.4,1-0.9,1.7-1.5,2.4c-0.6,0.6-1.3,1.1-2,1.4
					c-0.7,0.3-1.5,0.5-2.3,0.4c-0.8,0-1.6-0.2-2.3-0.5c-1.1-0.5-2-1.1-2.7-2c-0.7-0.9-1.2-1.8-1.5-2.8l1.9-0.9
					c0.2,0.9,0.6,1.6,1.1,2.3c0.6,0.7,1.2,1.2,1.9,1.5c1,0.4,1.9,0.4,2.9,0c1-0.4,1.7-1.3,2.2-2.5c0.3-0.6,0.4-1.2,0.4-1.7
					c0-0.6-0.1-1.1-0.3-1.6c-0.2-0.5-0.4-1-0.8-1.5c-0.3-0.5-0.7-0.9-1.1-1.4c-0.5-0.5-0.9-1.1-1.3-1.7c-0.4-0.6-0.7-1.2-0.9-1.8
					c-0.2-0.6-0.3-1.3-0.3-2.1c0-0.7,0.2-1.5,0.6-2.4c0.4-1,0.9-1.8,1.6-2.4c0.6-0.6,1.3-1.1,2-1.3c0.7-0.3,1.5-0.4,2.2-0.4
					c0.8,0,1.5,0.2,2.2,0.5c1,0.4,1.8,1,2.4,1.6c0.6,0.7,1.1,1.5,1.3,2.4l-1.9,0.9c-0.2-0.8-0.5-1.4-0.9-1.9c-0.4-0.5-1-0.9-1.6-1.1
					c-0.4-0.2-0.9-0.3-1.4-0.3c-0.5,0-1,0.1-1.4,0.2c-0.5,0.2-0.9,0.5-1.3,0.9c-0.4,0.4-0.8,1-1.1,1.7c-0.3,0.6-0.4,1.2-0.4,1.7
					c0,0.5,0.1,1,0.2,1.5c0.2,0.5,0.4,0.9,0.7,1.4c0.3,0.4,0.6,0.9,1,1.3c0.4,0.5,0.9,1.1,1.3,1.7c0.4,0.6,0.7,1.2,1,1.9
					c0.2,0.7,0.4,1.4,0.3,2.2C253.5,37.3,253.3,38.1,252.9,39z"/>
			</g>
		</g>
	</g>
	<g>
		<g>
			<g>
				<path id="path_e71a78034d1bdbf683bf64778e43cb3e" class="st0" d="M136.2,63c0-0.9,0.2-1.8,0.5-2.8c0.3-1,0.8-2,1.3-2.9
					c0.5-0.9,1.2-1.8,1.9-2.6c0.7-0.8,1.4-1.4,2.2-1.8c0.3-0.2,0.6-0.3,1-0.4c0.3-0.1,0.7-0.2,1-0.2c0.1,0,0.2,0,0.3,0h0.4
					c0.3,0,0.5,0,0.7,0.1c0.2,0.1,0.3,0.1,0.5,0.2c0.1,0.1,0.2,0.1,0.3,0.2c0.1,0.1,0.2,0.1,0.2,0.1c0.2,0,0.3-0.1,0.3-0.3
					c0-0.2,0.1-0.3,0.1-0.4c0-0.3-0.1-0.6-0.3-0.8s-0.5-0.4-0.8-0.5c-0.3-0.1-0.6-0.2-1-0.3c-0.3-0.1-0.6-0.1-0.9-0.1
					c-0.9,0-1.7,0.2-2.5,0.6c-0.8,0.4-1.6,0.9-2.3,1.5c-0.7,0.6-1.4,1.4-1.9,2.2s-1.1,1.7-1.5,2.6c-0.4,0.9-0.8,1.8-1,2.7
					c-0.2,0.9-0.3,1.7-0.3,2.5c0,0.4,0,0.8,0.1,1.2c0.1,0.4,0.2,0.8,0.4,1.2c0.2,0.4,0.4,0.7,0.7,0.9c0.3,0.2,0.7,0.4,1.2,0.4
					c0.7,0,1.5-0.2,2.2-0.7c0.7-0.5,1.4-1.1,2-1.8c0.6-0.7,1.2-1.4,1.7-2.2c0.5-0.8,0.9-1.4,1.2-2c0,0.5-0.1,1.1-0.1,1.8
					c-0.1,0.8-0.2,1.6-0.3,2.4c-0.1,0.9-0.3,1.7-0.6,2.6c-0.2,0.9-0.5,1.7-0.9,2.4c-0.3,0.7-0.7,1.3-1.2,1.7c-0.5,0.5-1,0.7-1.7,0.7
					c-0.4,0-0.7-0.1-1-0.2c-0.3-0.1-0.5-0.3-0.7-0.4c-0.2-0.2-0.4-0.3-0.5-0.5c-0.2-0.1-0.3-0.2-0.4-0.2c-0.1,0-0.2,0-0.3,0.1
					c-0.1,0.1-0.1,0.2-0.1,0.3c0,0.2,0.1,0.3,0.2,0.5c0.1,0.2,0.3,0.3,0.4,0.4c0.3,0.3,0.7,0.5,1.2,0.7c0.5,0.2,0.9,0.2,1.3,0.2
					c0.8,0,1.6-0.2,2.2-0.7c0.6-0.5,1.2-1.1,1.7-1.9c0.5-0.8,0.9-1.7,1.2-2.7c0.3-1,0.6-2,0.9-3c0.2-1,0.4-1.9,0.5-2.8
					c0.1-0.9,0.2-1.7,0.3-2.3c0.1-0.7,0.2-1.5,0.2-2.2c0.1-0.7,0.1-1.4,0.1-2.2c0-0.2,0-0.4-0.1-0.5c-0.1-0.2-0.2-0.2-0.5-0.2
					c-0.3,0-0.5,0-0.6,0.1c-0.1,0.1-0.3,0.2-0.3,0.3c-0.1,0.1-0.1,0.3-0.2,0.5c0,0.2-0.1,0.4-0.2,0.6c-0.2,0.7-0.5,1.5-1,2.4
					c-0.5,0.9-1,1.8-1.5,2.7c-0.6,0.9-1.2,1.7-1.9,2.4c-0.7,0.7-1.3,1.3-1.9,1.7c-0.1,0.1-0.3,0.2-0.5,0.3c-0.2,0.1-0.3,0.1-0.5,0.1
					c-0.2,0-0.3-0.1-0.5-0.2c-0.1-0.1-0.2-0.3-0.3-0.4c-0.1-0.2-0.1-0.3-0.1-0.5C136.2,63.3,136.2,63.1,136.2,63z"/>
			</g>
		</g>
		<g>
			<g>
				<path id="path_4b1082280ed195e8a72206d8bc2730a0" class="st0" d="M150.9,67.1c0.5,0,1-0.2,1.4-0.5c0.5-0.3,0.9-0.7,1.4-1.1
					c0.4-0.4,0.8-0.9,1.2-1.4c0.3-0.5,0.6-0.9,0.9-1.3c0.1-0.1,0.2-0.3,0.2-0.4c0.1-0.1,0.1-0.3,0.1-0.4c0-0.1,0-0.2-0.1-0.3
					c0-0.1-0.1-0.1-0.3-0.1c-0.1,0-0.2,0-0.3,0.1c-0.1,0.1-0.1,0.1-0.2,0.2c-0.1,0.2-0.2,0.3-0.3,0.5c-0.1,0.2-0.2,0.3-0.3,0.5
					c-0.2,0.2-0.4,0.5-0.6,0.8s-0.5,0.6-0.8,0.9c-0.3,0.3-0.6,0.6-0.9,0.8c-0.3,0.2-0.6,0.3-0.9,0.3c-0.3,0-0.6-0.1-0.8-0.4
					c-0.2-0.3-0.3-0.6-0.4-1c-0.1-0.4-0.2-0.8-0.2-1.2c0-0.4,0-0.7,0-1c0-0.1,0-0.3,0-0.5c0-0.2,0-0.4,0.1-0.5
					c0-0.1,0.1-0.2,0.2-0.3c0.1-0.1,0.2-0.2,0.2-0.3c0.2-0.3,0.4-0.6,0.6-0.9c0.2-0.3,0.4-0.6,0.5-0.9c0.4-0.6,0.7-1.4,1-2.2
					c0.3-0.8,0.7-1.6,0.9-2.5c0.3-0.9,0.5-1.7,0.7-2.6c0.2-0.9,0.3-1.6,0.3-2.4c0-0.2,0-0.5-0.1-0.7c0-0.2-0.1-0.5-0.2-0.7
					c-0.1-0.2-0.2-0.4-0.4-0.5c-0.2-0.1-0.4-0.2-0.7-0.2c-0.3,0-0.7,0.1-1,0.4c-0.3,0.2-0.6,0.6-0.9,0.9c-0.3,0.4-0.5,0.7-0.8,1.1
					c-0.2,0.4-0.4,0.7-0.5,1c-0.7,1.5-1.1,3.1-1.4,4.6c-0.3,1.6-0.4,3.2-0.4,4.8c0,0.3,0,0.7,0,1.2c0,0.5,0.1,1,0.1,1.5
					c0.1,0.6,0.2,1.1,0.3,1.7c0.1,0.6,0.3,1,0.5,1.5c0.2,0.4,0.5,0.8,0.8,1.1C150.1,67,150.5,67.1,150.9,67.1z M153.2,48
					c0.1,0,0.2,0,0.2,0.1c0,0.1,0.1,0.2,0.1,0.2c0,0.1,0,0.2,0,0.3v0.2c0,0.7-0.1,1.6-0.3,2.5c-0.2,0.9-0.5,1.8-0.9,2.7
					c-0.3,0.9-0.7,1.8-1.2,2.6c-0.4,0.8-0.8,1.6-1.2,2.2c0-0.1,0-0.2,0-0.3v-0.3c0-1.1,0.1-2.3,0.4-3.5c0.3-1.2,0.6-2.4,0.9-3.4
					c0.1-0.2,0.2-0.5,0.3-0.8c0.1-0.4,0.3-0.7,0.4-1.1c0.2-0.4,0.4-0.7,0.6-0.9C152.7,48.1,152.9,48,153.2,48z"/>
			</g>
		</g>
		<g>
			<g>
				<path id="path_37f6caebbf8c68bdbe7327bbb963609f" class="st0" d="M165.8,62.5c0-0.3-0.1-0.4-0.4-0.4c-0.2,0-0.3,0.1-0.4,0.2
					c-0.1,0.1-0.2,0.3-0.3,0.4c-0.1,0.2-0.3,0.5-0.6,0.9c-0.3,0.4-0.6,0.7-0.9,1c-0.3,0.3-0.7,0.6-1,0.9c-0.3,0.2-0.7,0.4-0.9,0.4
					c-0.2,0-0.3-0.1-0.4-0.3c-0.1-0.2-0.2-0.4-0.2-0.7c0-0.3-0.1-0.5-0.1-0.8c0-0.2,0-0.4,0-0.6c0-0.4,0-0.8,0.1-1.3
					c0.1-0.5,0.1-0.9,0.3-1.3c0.1-0.2,0.1-0.4,0.3-0.7c0.1-0.3,0.2-0.5,0.2-0.7c0-0.2-0.1-0.3-0.2-0.3c-0.1,0-0.2-0.1-0.4-0.1
					c-0.2,0-0.4,0.1-0.5,0.2c-0.1,0.1-0.2,0.3-0.3,0.5c-0.1,0.2-0.2,0.4-0.3,0.7c-0.1,0.3-0.3,0.7-0.5,1c-0.2,0.4-0.4,0.8-0.6,1.2
					c-0.2,0.4-0.5,0.8-0.7,1.1c-0.2,0.3-0.5,0.6-0.7,0.8c-0.2,0.2-0.4,0.3-0.6,0.3c-0.1,0-0.2-0.1-0.3-0.2c0-0.1,0-0.3,0-0.3
					c0-0.9,0.2-1.7,0.5-2.5c0.4-0.8,0.8-1.5,1.4-2.1c0.3-0.4,0.7-0.7,1.1-0.9c0.4-0.3,0.8-0.5,1.2-0.8c0.1,0,0.1-0.1,0.2-0.1
					c0,0,0.1-0.1,0.1-0.2c0-0.2-0.1-0.3-0.3-0.5c-0.2-0.2-0.3-0.2-0.5-0.2c-0.7,0-1.3,0.2-2,0.7c-0.6,0.5-1.2,1-1.7,1.7
					c-0.5,0.7-0.9,1.4-1.2,2.2c-0.3,0.8-0.4,1.5-0.4,2.1c0,0.2,0,0.5,0.1,0.7c0,0.3,0.1,0.5,0.2,0.8c0.1,0.2,0.2,0.5,0.4,0.6
					c0.2,0.2,0.4,0.3,0.7,0.3c0.3,0,0.6-0.1,0.9-0.3c0.3-0.2,0.6-0.5,0.9-0.8c0.3-0.3,0.6-0.7,0.8-1c0.2-0.3,0.4-0.6,0.6-0.9
					c0,0.3,0,0.6,0,1c0,0.4,0.1,0.8,0.2,1.2c0.1,0.4,0.3,0.7,0.5,1c0.2,0.3,0.5,0.4,0.9,0.4c0.4,0,0.8-0.1,1.2-0.3
					c0.4-0.2,0.8-0.5,1.2-0.9c0.4-0.3,0.7-0.7,1-1.1c0.3-0.4,0.6-0.7,0.8-1c0.1-0.1,0.2-0.3,0.3-0.5
					C165.7,62.8,165.8,62.6,165.8,62.5z"/>
			</g>
		</g>
		<g>
			<g>
				<path id="path_5ed274d78e0a9e1e57256bcdca71345e" class="st0" d="M168.2,58.6c0.2,0.5,0.4,0.9,0.7,1.4c0.2,0.5,0.5,0.9,0.7,1.4
					c0.2,0.5,0.4,0.9,0.6,1.4c0.2,0.5,0.2,1,0.2,1.5c0,0.3,0,0.6-0.1,0.9c-0.1,0.3-0.2,0.6-0.4,0.9c0.3,0,0.6-0.1,1-0.4
					c0.4-0.3,0.7-0.6,1.1-0.9c0.4-0.3,0.7-0.7,1-1.1c0.3-0.4,0.5-0.7,0.7-0.9c0.1-0.1,0.2-0.2,0.3-0.4c0.1-0.1,0.2-0.2,0.4-0.2
					c0.1,0,0.2,0,0.3,0.1c0,0.1,0.1,0.2,0.1,0.3c0,0.1,0,0.2-0.1,0.2c-0.1,0.1-0.1,0.2-0.1,0.2c-0.4,0.7-0.9,1.3-1.4,1.8
					c-0.5,0.5-1,1-1.6,1.4c-0.6,0.4-1.2,0.7-1.9,0.9c-0.7,0.2-1.5,0.3-2.3,0.3c-0.5,0-0.9,0-1.5-0.1c-0.5-0.1-1-0.3-1.3-0.6
					c-0.1-0.1-0.1-0.2-0.2-0.2c0-0.1-0.1-0.2-0.1-0.3c0-0.2,0.1-0.3,0.4-0.3c0.1,0,0.2,0,0.2,0c0.1,0,0.1,0.1,0.2,0.1
					c0.3,0.2,0.5,0.3,0.8,0.3c0.3,0.1,0.6,0.1,0.9,0.1c0.6,0,1.1-0.2,1.4-0.6c0.3-0.4,0.5-0.9,0.5-1.5c0-0.4-0.1-0.7-0.2-1.1
					c-0.1-0.4-0.2-0.8-0.4-1.2c-0.2-0.4-0.3-0.8-0.5-1.2c-0.2-0.4-0.4-0.7-0.6-1c-0.1,0.3-0.2,0.7-0.4,1c-0.2,0.4-0.3,0.8-0.5,1.1
					c-0.2,0.4-0.4,0.7-0.6,1.1c-0.2,0.3-0.5,0.6-0.7,0.9c-0.1,0.1-0.2,0.2-0.3,0.2c-0.1,0.1-0.2,0.1-0.3,0.1c-0.2,0-0.3-0.1-0.3-0.3
					c0-0.1,0-0.2,0.1-0.3c0.1-0.1,0.1-0.2,0.2-0.3c1.1-1.3,1.8-2.8,2.4-4.4c-0.1-0.4-0.2-0.8-0.2-1.2c0-0.2,0-0.5,0.1-0.8
					c0.1-0.3,0.2-0.6,0.3-0.9c0.1-0.3,0.3-0.5,0.5-0.7c0.2-0.2,0.5-0.3,0.7-0.3c0.1,0,0.3,0,0.4,0.1c0.1,0.1,0.2,0.2,0.2,0.3
					c0.1,0.1,0.1,0.3,0.1,0.4c0,0.1,0,0.3,0,0.4c0,0.4-0.1,0.8-0.2,1.2C168.5,57.8,168.4,58.2,168.2,58.6z"/>
			</g>
		</g>
		<g>
			<g>
				<path id="path_9d2d97f6b247948492e5da6a7c89ff33" class="st0" d="M177.3,58.6c0.2,0.5,0.4,0.9,0.7,1.4c0.2,0.5,0.5,0.9,0.7,1.4
					c0.2,0.5,0.4,0.9,0.6,1.4c0.2,0.5,0.2,1,0.2,1.5c0,0.3,0,0.6-0.1,0.9c-0.1,0.3-0.2,0.6-0.4,0.9c0.3,0,0.6-0.1,1-0.4
					c0.4-0.3,0.7-0.6,1.1-0.9c0.4-0.3,0.7-0.7,1-1.1c0.3-0.4,0.5-0.7,0.7-0.9c0.1-0.1,0.2-0.2,0.3-0.4c0.1-0.1,0.2-0.2,0.4-0.2
					c0.1,0,0.2,0,0.3,0.1c0,0.1,0.1,0.2,0.1,0.3c0,0.1,0,0.2-0.1,0.2c-0.1,0.1-0.1,0.2-0.1,0.2c-0.4,0.7-0.9,1.3-1.4,1.8
					c-0.5,0.5-1,1-1.6,1.4c-0.6,0.4-1.2,0.7-1.9,0.9c-0.7,0.2-1.5,0.3-2.3,0.3c-0.5,0-0.9,0-1.5-0.1c-0.5-0.1-1-0.3-1.3-0.6
					c-0.1-0.1-0.1-0.2-0.2-0.2c0-0.1-0.1-0.2-0.1-0.3c0-0.2,0.1-0.3,0.4-0.3c0.1,0,0.2,0,0.2,0c0.1,0,0.1,0.1,0.2,0.1
					c0.3,0.2,0.5,0.3,0.8,0.3c0.3,0.1,0.6,0.1,0.9,0.1c0.6,0,1.1-0.2,1.4-0.6c0.3-0.4,0.5-0.9,0.5-1.5c0-0.4-0.1-0.7-0.2-1.1
					c-0.1-0.4-0.2-0.8-0.4-1.2c-0.2-0.4-0.3-0.8-0.5-1.2c-0.2-0.4-0.4-0.7-0.6-1c-0.1,0.3-0.2,0.7-0.4,1c-0.2,0.4-0.3,0.8-0.5,1.1
					c-0.2,0.4-0.4,0.7-0.6,1.1c-0.2,0.3-0.5,0.6-0.7,0.9c-0.1,0.1-0.2,0.2-0.3,0.2c-0.1,0.1-0.2,0.1-0.3,0.1c-0.2,0-0.3-0.1-0.3-0.3
					c0-0.1,0-0.2,0.1-0.3c0.1-0.1,0.1-0.2,0.2-0.3c1.1-1.3,1.8-2.8,2.4-4.4c-0.1-0.4-0.2-0.8-0.2-1.2c0-0.2,0-0.5,0.1-0.8
					c0.1-0.3,0.2-0.6,0.3-0.9c0.1-0.3,0.3-0.5,0.5-0.7c0.2-0.2,0.5-0.3,0.7-0.3c0.1,0,0.3,0,0.4,0.1c0.1,0.1,0.2,0.2,0.2,0.3
					c0.1,0.1,0.1,0.3,0.1,0.4c0,0.1,0,0.3,0,0.4c0,0.4-0.1,0.8-0.2,1.2C177.6,57.8,177.5,58.2,177.3,58.6z"/>
			</g>
		</g>
		<g>
			<g>
				<path id="path_dacf5374df6b14ab125536209583b263" class="st0" d="M198.9,63.5c0.1-0.1,0.2-0.3,0.3-0.4c0.1-0.2,0.2-0.3,0.2-0.4
					c0-0.1-0.1-0.2-0.2-0.4s-0.2-0.2-0.4-0.2c-0.1,0-0.2,0-0.3,0.1s-0.2,0.2-0.3,0.3c-0.1,0.1-0.2,0.2-0.3,0.3
					c-0.1,0.1-0.2,0.2-0.2,0.3c-0.4-0.8-0.8-1.7-1.3-2.5c-0.4-0.8-0.8-1.7-1.2-2.5c0.4-0.2,0.8-0.5,1.2-0.8c0.4-0.3,0.8-0.7,1.2-1
					c0.3-0.4,0.6-0.8,0.9-1.3c0.2-0.5,0.3-1,0.3-1.5c0-0.4-0.1-0.8-0.3-1.1c-0.2-0.3-0.4-0.6-0.7-0.8c-0.3-0.2-0.6-0.4-1-0.5
					c-0.4-0.1-0.7-0.2-1.1-0.2c-0.5,0-1,0.1-1.4,0.3c-0.4,0.2-0.8,0.5-1.1,0.9c-0.3,0.4-0.6,0.8-0.7,1.2s-0.3,0.9-0.3,1.5
					c0,0.5,0.1,1,0.2,1.5c0.2,0.5,0.3,0.9,0.6,1.4c-0.4,0.3-0.8,0.6-1.2,1c-0.4,0.4-0.8,0.8-1.2,1.3c-0.3,0.5-0.6,0.9-0.8,1.5
					c-0.2,0.5-0.3,1.1-0.3,1.6c0,0.5,0.1,1,0.3,1.4c0.2,0.4,0.5,0.8,0.8,1.1c0.3,0.3,0.7,0.5,1.2,0.7c0.5,0.2,0.9,0.2,1.4,0.2
					c0.7,0,1.4-0.1,2.1-0.4c0.7-0.3,1.3-0.6,1.8-1.1l0.7,1.4c0.1,0.1,0.2,0.2,0.3,0.3c0.1,0,0.2,0,0.4,0c0.2,0,0.3,0,0.5-0.1
					c0.2-0.1,0.2-0.2,0.2-0.4c0,0,0-0.2-0.1-0.3l-0.3-0.6c-0.1-0.2-0.2-0.4-0.3-0.6c-0.1-0.2-0.2-0.3-0.2-0.4
					c0.1-0.1,0.2-0.2,0.4-0.3C198.7,63.7,198.8,63.6,198.9,63.5z M196.1,51.6c0.7,0,1,0.4,1,1.1c0,0.5-0.1,0.9-0.2,1.3
					c-0.2,0.4-0.4,0.7-0.7,1.1c-0.3,0.3-0.6,0.6-0.9,0.9c-0.3,0.3-0.7,0.5-1,0.8c-0.2-0.4-0.3-0.7-0.4-1.1c-0.1-0.4-0.1-0.8-0.1-1.2
					c0-0.3,0.1-0.7,0.2-1c0.1-0.3,0.3-0.6,0.5-0.9c0.2-0.3,0.4-0.5,0.7-0.6C195.4,51.7,195.7,51.6,196.1,51.6z M194,58.6
					c0.5,0.9,0.9,1.8,1.3,2.6c0.4,0.8,0.8,1.7,1.3,2.6c-0.5,0.4-1,0.7-1.6,1c-0.6,0.3-1.2,0.5-1.8,0.5c-0.7,0-1.2-0.2-1.5-0.5
					c-0.4-0.3-0.5-0.8-0.5-1.5c0-0.5,0.1-0.9,0.3-1.4c0.2-0.4,0.4-0.9,0.7-1.3c0.3-0.4,0.6-0.8,0.9-1.1
					C193.3,59.2,193.7,58.9,194,58.6z"/>
			</g>
		</g>
		<g>
			<g>
				<path id="path_88507c7c89efa340373f9b36bd79d1d5" class="st0" d="M214.9,59.1c-0.5,0.1-0.9,0.1-1.4,0.2s-0.9,0.1-1.4,0.2
					c0.3-0.6,0.5-1.1,0.7-1.7c0.2-0.6,0.4-1.1,0.7-1.7c0-0.1,0.1-0.2,0.2-0.4c0.1-0.2,0.1-0.4,0.2-0.6c0.1-0.2,0.2-0.4,0.2-0.6
					c0.1-0.2,0.1-0.3,0.2-0.3s0.1,0,0.1,0.1c0,0,0,0.1,0,0.1c0.1,0.3,0.1,0.6,0.1,0.9c0,0.3,0,0.6,0,0.9
					C214.7,57.1,214.8,58.1,214.9,59.1z M219.2,66.6c0.4,0,0.9-0.1,1.3-0.4c0.4-0.3,0.9-0.6,1.3-0.9c0.4-0.4,0.8-0.8,1.1-1.2
					s0.6-0.8,0.8-1.2c0-0.1,0.1-0.2,0.1-0.3c0-0.1,0.1-0.2,0.1-0.3c0-0.1,0-0.2-0.1-0.2c-0.1-0.1-0.2-0.1-0.3-0.1
					c-0.1,0-0.2,0-0.3,0.1c-0.1,0.1-0.2,0.2-0.2,0.3c-0.2,0.3-0.4,0.6-0.7,0.9c-0.3,0.3-0.5,0.6-0.8,0.9c-0.3,0.3-0.6,0.5-1,0.7
					c-0.3,0.2-0.7,0.3-1.1,0.3c-0.2,0-0.4-0.1-0.6-0.3c-0.2-0.2-0.4-0.5-0.5-0.9c-0.2-0.3-0.3-0.7-0.4-1.2c-0.1-0.4-0.2-0.8-0.3-1.2
					c-0.1-0.4-0.2-0.8-0.2-1.1c0-0.3-0.1-0.6-0.1-0.8c0.3,0,0.7-0.1,1-0.1c0.4,0,0.7-0.1,1-0.2c0.1,0,0.3-0.1,0.4-0.2
					c0.1-0.1,0.2-0.2,0.2-0.4c0-0.1,0-0.2-0.1-0.3c-0.1,0-0.2-0.1-0.3-0.1c-0.4,0-0.7,0-1.1,0.1c-0.4,0.1-0.7,0.1-1.1,0.2
					c-0.1-0.7-0.1-1.4-0.1-2c0-0.7,0-1.3,0-2c0-0.9,0-1.7,0.1-2.6c0.1-0.9,0.1-1.7,0.1-2.6c0-0.2,0-0.4-0.1-0.6
					c-0.1-0.2-0.2-0.3-0.4-0.3c-0.1,0-0.3,0-0.6,0.1c-0.2,0.1-0.5,0.1-0.7,0.3c-0.2,0.1-0.4,0.2-0.6,0.4c-0.2,0.1-0.2,0.3-0.2,0.5
					c0,0.5,0,0.9-0.1,1.3c-0.1,0.4-0.2,0.8-0.4,1.3c-0.2,0.5-0.5,1.2-0.8,2.2c-0.4,0.9-0.8,2-1.2,3.1c-0.5,1.1-1,2.3-1.5,3.4
					c-0.6,1.2-1.1,2.2-1.7,3.2c-0.6,1-1.2,1.7-1.8,2.3s-1.2,0.9-1.8,0.9c-0.2,0-0.4,0-0.6-0.1s-0.4-0.1-0.6-0.1
					c-0.1,0-0.2,0-0.3,0.1c-0.1,0.1-0.2,0.2-0.2,0.3c0,0.2,0.1,0.3,0.2,0.4c0.1,0.1,0.3,0.2,0.5,0.2c0.2,0,0.4,0.1,0.5,0.1
					c0.2,0,0.3,0,0.4,0c0.9,0,1.8-0.3,2.5-0.8c0.7-0.6,1.3-1.2,1.9-2.1c0.5-0.8,1-1.7,1.4-2.6c0.4-0.9,0.8-1.7,1.1-2.4
					c0.6-0.1,1.1-0.1,1.7-0.2c0.6-0.1,1.1-0.2,1.7-0.3c0.1,0.5,0.2,1.2,0.4,1.9c0.2,0.8,0.4,1.5,0.7,2.2c0.3,0.7,0.7,1.3,1.2,1.7
					C217.9,66.4,218.5,66.6,219.2,66.6z"/>
			</g>
		</g>
		<g>
			<g>
				<path id="path_18eb48b6b494813afc2b7605631c2e37" class="st0" d="M226.4,61.3c0,0.4,0,0.9-0.1,1.3c0,0.4-0.1,0.8-0.1,1.3
					c0,0.3,0,0.6,0,1c0,0.4,0.1,0.7,0.2,1.1c0.1,0.3,0.3,0.6,0.5,0.9c0.2,0.2,0.5,0.4,0.9,0.4c0.4,0,0.8-0.2,1.2-0.5
					c0.5-0.3,0.9-0.7,1.3-1.1c0.4-0.4,0.8-0.9,1.2-1.3c0.4-0.5,0.6-0.8,0.8-1.1c0-0.1,0.1-0.2,0.1-0.2c0-0.1,0.1-0.2,0.1-0.3
					c0-0.1,0-0.2-0.1-0.3c0-0.1-0.1-0.2-0.3-0.2c-0.1,0-0.3,0.1-0.4,0.2c-0.1,0.1-0.2,0.3-0.3,0.4c-0.1,0.2-0.4,0.5-0.7,0.9
					c-0.3,0.4-0.6,0.7-1,1.1c-0.3,0.4-0.7,0.7-1,0.9c-0.3,0.3-0.7,0.4-0.9,0.4c-0.2,0-0.3-0.1-0.4-0.3c0-0.2-0.1-0.4-0.1-0.5
					c0-0.6,0-1.1,0.1-1.7c0.1-0.5,0.2-1.1,0.3-1.6c0.1-0.3,0.1-0.6,0.1-0.9c0-0.5-0.1-0.9-0.3-1.2c-0.2-0.3-0.5-0.6-0.8-0.8
					c-0.3-0.2-0.6-0.4-0.9-0.6c-0.3-0.2-0.6-0.4-0.7-0.7c0-0.4,0.1-0.7,0.1-1.1c0-0.1,0-0.3,0-0.5c0-0.2-0.1-0.4-0.1-0.6
					c-0.1-0.2-0.1-0.4-0.2-0.5c-0.1-0.1-0.2-0.2-0.4-0.2c-0.2,0-0.4,0.1-0.6,0.3c-0.2,0.2-0.3,0.4-0.4,0.7c-0.1,0.3-0.2,0.6-0.3,0.9
					c-0.1,0.3-0.1,0.5-0.1,0.7c0,0.4,0,0.7,0.1,1c0.1,0.3,0.2,0.6,0.5,0.9c-0.1,0.8-0.3,1.5-0.7,2.2c-0.4,0.7-0.8,1.4-1.3,2
					c-0.1,0.1-0.1,0.2-0.2,0.2c0,0.1-0.1,0.2-0.1,0.3c0,0.2,0.1,0.3,0.3,0.3c0.1,0,0.2,0,0.3-0.1c0.1-0.1,0.2-0.2,0.3-0.2
					c0.3-0.3,0.5-0.6,0.7-0.9c0.2-0.3,0.4-0.7,0.6-1.1c0.2-0.4,0.4-0.7,0.5-1.1c0.1-0.4,0.3-0.7,0.4-1.1c0.3,0.1,0.7,0.3,0.9,0.5
					C226.3,60.6,226.4,60.9,226.4,61.3z"/>
			</g>
		</g>
		<g>
			<g>
				<path id="path_648b5a554424ce2a3b3bc26f6dbb0bb2" class="st0" d="M236.9,55.2c0.1,0,0.2,0,0.4-0.1c0.2,0,0.4-0.1,0.6-0.2
					c0.2-0.1,0.4-0.1,0.6-0.2c0.2-0.1,0.3-0.1,0.3-0.1c0.1-0.1,0.2-0.1,0.2-0.2c0.1-0.1,0.1-0.1,0.1-0.3c0-0.2-0.1-0.3-0.3-0.3
					c-0.3,0-0.5,0-0.8,0.1c-0.3,0-0.5,0.1-0.8,0.1c0.2-0.6,0.3-1.2,0.4-1.8c0.1-0.6,0.1-1.2,0.1-1.8c0-0.2,0-0.4,0-0.6
					c0-0.2-0.1-0.5-0.1-0.7c-0.1-0.2-0.2-0.4-0.3-0.6c-0.1-0.2-0.3-0.2-0.6-0.2c-0.5,0-1,0.2-1.5,0.7c-0.4,0.5-0.8,1.1-1.2,1.8
					c-0.3,0.7-0.6,1.4-0.9,2.1c-0.2,0.7-0.4,1.3-0.5,1.7c-0.2,0-0.5,0.1-0.8,0.2c-0.3,0.1-0.4,0.3-0.4,0.6c0,0.4,0.2,0.6,0.6,0.6
					c0.2,0,0.3,0,0.5-0.1c-0.2,0.7-0.3,1.5-0.3,2.3c-0.1,0.8-0.1,1.5-0.1,2.3c0,0.3,0,0.7,0,1.1c0,0.4,0.1,0.9,0.2,1.4
					c0.1,0.5,0.2,1,0.3,1.5c0.1,0.5,0.3,0.9,0.5,1.3c0.2,0.4,0.5,0.7,0.8,1c0.3,0.2,0.7,0.4,1.1,0.4c0.5,0,0.9-0.2,1.4-0.5
					c0.5-0.3,0.9-0.7,1.4-1.1c0.4-0.4,0.8-0.9,1.2-1.4c0.4-0.5,0.6-0.9,0.9-1.3c0.1-0.2,0.2-0.3,0.3-0.5c0.1-0.2,0.1-0.3,0.1-0.5
					c0-0.1,0-0.2-0.1-0.2c-0.1-0.1-0.1-0.1-0.2-0.1c-0.1,0-0.2,0.1-0.3,0.2c-0.1,0.1-0.2,0.2-0.3,0.3c-0.2,0.3-0.4,0.6-0.7,1
					c-0.3,0.4-0.6,0.8-1,1.2c-0.3,0.4-0.7,0.7-1.1,1c-0.4,0.3-0.7,0.4-1.1,0.4c-0.3,0-0.6-0.2-0.8-0.6c-0.2-0.4-0.3-0.8-0.4-1.3
					c-0.1-0.5-0.2-1-0.2-1.5c0-0.5-0.1-0.9-0.1-1.1v-0.3c0-0.1,0-0.2,0-0.3c0-0.1,0.1-0.2,0.2-0.2c0.1-0.1,0.1-0.2,0.2-0.2
					c0.1-0.2,0.2-0.3,0.3-0.5c0.1-0.1,0.2-0.3,0.3-0.5c0.4-0.6,0.8-1.3,1.1-2C236.5,56.6,236.7,55.9,236.9,55.2z M236.6,49.5
					c0.1,0,0.1,0,0.1,0.1c0,0.1,0.1,0.1,0.1,0.2c0,0.1,0,0.2,0,0.2v0.2c0,0.6-0.1,1.3-0.2,2c-0.1,0.7-0.3,1.4-0.5,2
					c-0.3,0.1-0.6,0.1-1,0.2c-0.3,0-0.6,0.1-1,0.1c0-0.2,0.1-0.6,0.3-1.2c0.1-0.5,0.3-1.1,0.5-1.7c0.2-0.6,0.5-1.1,0.7-1.5
					C236.1,49.7,236.4,49.5,236.6,49.5z M234.2,55.7c0.3-0.1,0.5-0.1,0.8-0.2c0.3,0,0.6-0.1,0.8-0.1c-0.1,0.3-0.2,0.6-0.3,1
					c-0.2,0.4-0.3,0.7-0.5,1.1c-0.2,0.4-0.4,0.7-0.6,1.1c-0.2,0.3-0.4,0.6-0.6,0.8c0-0.6,0.1-1.2,0.1-1.9
					C233.9,56.9,234,56.3,234.2,55.7z"/>
			</g>
		</g>
	</g>
</g>
</svg>
