<svg xmlns="http://www.w3.org/2000/svg" width="27.372" height="27.371" viewBox="0 0 27.372 27.371">
  <g id="Group_215" data-name="Group 215" transform="translate(-1399.403 -2185.315)">
    <path id="Path_92" data-name="Path 92" d="M19.487,1.845H7.885A7.893,7.893,0,0,0,0,9.73v11.6a7.894,7.894,0,0,0,7.885,7.885h11.6a7.894,7.894,0,0,0,7.885-7.885V9.73a7.893,7.893,0,0,0-7.885-7.885m5.091,19.487h0a5.1,5.1,0,0,1-5.091,5.092H7.885a5.1,5.1,0,0,1-5.091-5.092V9.73A5.1,5.1,0,0,1,7.885,4.638h11.6A5.1,5.1,0,0,1,24.579,9.73Z" transform="translate(1399.403 2183.47)" fill="#005a7a" fill-rule="evenodd"/>
    <path id="Path_93" data-name="Path 93" d="M16.642,12.13A6.356,6.356,0,1,0,23,18.486a6.364,6.364,0,0,0-6.356-6.356m0,9.79h0a3.434,3.434,0,1,1,3.434-3.434,3.438,3.438,0,0,1-3.434,3.434" transform="translate(1396.447 2180.514)" fill="#005a7a" fill-rule="evenodd"/>
    <path id="Path_94" data-name="Path 94" d="M28.44,8.263a1.885,1.885,0,1,0,1.885,1.885A1.886,1.886,0,0,0,28.44,8.263" transform="translate(1391.771 2181.625)" fill="#005a7a" fill-rule="evenodd"/>
  </g>
</svg>
